<svg xmlns="http://www.w3.org/2000/svg" xmlns:xlink="http://www.w3.org/1999/xlink" width="279.604" height="39.791" viewBox="0 0 279.604 39.791"><defs><style>.a{fill:url(#a);}.b,.d{fill:#eaeaea;}.b{font-size:19px;font-family:CircularStd-Bold, Circular Std;font-weight:700;letter-spacing:0.025em;}.c{fill:none;stroke:#eaeaea;stroke-linecap:round;stroke-linejoin:round;stroke-width:2px;}</style><linearGradient id="a" x1="0.5" y1="0.896" x2="0.5" y2="0.059" gradientUnits="objectBoundingBox"><stop offset="0" stop-color="#00dea7"/><stop offset="1" stop-color="#00be8e"/></linearGradient></defs><g transform="translate(-48 -264.209)"><rect class="a" width="279.604" height="39.791" rx="8" transform="translate(48 264.209)"/><g transform="translate(5.859 -22.791)"><text class="b" transform="translate(158.95 313)"><tspan x="0" y="0">Deposit</tspan></text><g transform="translate(-2.309 -282.043)"><path class="c" d="M4816.214,8066.422v2.392h12.7v-2.392" transform="translate(-4680.573 -7475.033)"/><g transform="translate(138.132 580.043)"><g transform="translate(0 0)"><path class="d" d="M4129.6,5377.938c0-1.007,0-2.153,0-3.16,0-.755.667-.85,1.406-.65a.578.578,0,0,1,.429.65c0,.939-.166,6.237-.165,7.177,0,.134.015.269.03.554.546-.569,1-1.053,1.464-1.523.428-.432.632-.422,1.066.02s.437.655.02,1.07q-1.42,1.414-2.844,2.826c-.421.417-.612.419-1.031,0q-1.438-1.427-2.868-2.862c-.4-.4-.386-.6.068-1.066.4-.4.617-.417,1-.03.481.481.947.977,1.42,1.467Z" transform="translate(-4126.817 -5374.038)"/></g></g></g></g></g></svg>